<svg width="24" height="24" viewBox="0 0 24 24" fill="none" xmlns="http://www.w3.org/2000/svg">
<path d="M22 12C22 6.477 17.523 2 12 2C6.47699 2 1.99999 6.477 1.99999 12C1.99999 17.523 6.47699 22 12 22H22L19.071 19.071C20.0009 18.1434 20.7384 17.0412 21.241 15.8278C21.7437 14.6143 22.0016 13.3135 22 12ZM17.172 20H12C10.4177 20 8.87103 19.5308 7.55543 18.6518C6.23984 17.7727 5.21446 16.5233 4.60896 15.0615C4.00345 13.5997 3.84503 11.9911 4.15371 10.4393C4.46239 8.88743 5.22432 7.46197 6.34314 6.34315C7.46196 5.22433 8.88742 4.4624 10.4393 4.15372C11.9911 3.84504 13.5997 4.00346 15.0615 4.60896C16.5233 5.21447 17.7727 6.23984 18.6517 7.55544C19.5308 8.87103 20 10.4177 20 12C20 14.152 19.149 16.165 17.657 17.657L16.243 19.071L17.172 20ZM16 13H7.99999C7.99999 14.0609 8.42142 15.0783 9.17157 15.8284C9.92171 16.5786 10.9391 17 12 17C13.0609 17 14.0783 16.5786 14.8284 15.8284C15.5786 15.0783 16 14.0609 16 13Z" fill="white"/>
</svg>
