<svg width="12" height="12" viewBox="0 0 12 12" fill="none" xmlns="http://www.w3.org/2000/svg">
<path d="M4.39852 3.69886C4.40589 3.7149 4.40971 3.73234 4.40971 3.74999C4.40971 3.76764 4.40589 3.78508 4.39852 3.80111L3.10603 5.33545C3.09643 5.34644 3.08764 5.3581 3.0797 5.37035C2.99883 5.49382 2.9512 5.63608 2.94144 5.78335C2.93168 5.93063 2.96011 6.07793 3.02399 6.21099L3.23337 6.10872L3.23313 6.10823C3.19176 6.02375 3.17026 5.93094 3.17026 5.8369C3.17026 5.8241 3.17065 5.81133 3.17145 5.7986C3.17647 5.71775 3.19739 5.63855 3.23312 5.56557L3.26019 5.5103L3.27198 5.4963L3.27274 5.4954L3.27973 5.48711L3.28236 5.48399L3.29985 5.46324L4.57523 3.94997L4.58141 3.94265C4.59088 3.92789 4.59923 3.91251 4.6064 3.89662C4.62304 3.85977 4.63336 3.82024 4.63678 3.77968C4.63762 3.76978 4.63804 3.75988 4.63805 3.74999C4.63809 3.70133 4.6282 3.65306 4.60885 3.6082L4.60753 3.60525L4.39852 3.69886ZM4.39852 3.69886L3.10664 0.814482M4.39852 3.69886L4.60664 3.60324L3.32748 0.733356L3.10664 0.814482M4.97222 4.2548L4.79348 4.10834L4.78093 4.12324L3.50587 5.63688L3.49289 5.65229C3.48649 5.66264 3.48064 5.67329 3.47536 5.68419C3.45534 5.72547 3.4434 5.77036 3.44034 5.81642C3.43989 5.82325 3.43964 5.83008 3.43958 5.8369C3.43911 5.88997 3.45048 5.94255 3.47294 5.99079C3.47298 5.99089 3.47302 5.99098 3.47307 5.99107C3.47342 5.99183 3.47378 5.99259 3.47414 5.99335L8.59315 6.92612C8.4621 6.86997 8.31912 6.84739 8.17714 6.86043C8.03517 6.87347 7.89869 6.92172 7.78007 7.00081C7.76805 7.00857 7.75659 7.01717 7.74578 7.02653L6.23409 8.31229C6.21841 8.32084 6.20095 8.32562 6.1831 8.32626C6.16524 8.3269 6.14749 8.32337 6.13123 8.31596C5.15957 7.84696 4.153 6.84652 3.68217 5.88833C3.67433 5.87232 3.67026 5.85472 3.67026 5.8369C3.67026 5.81907 3.67433 5.80148 3.68217 5.78547L4.97222 4.2548ZM4.97222 4.2548L4.79554 4.1059L4.80403 4.09582L4.80594 4.09354L4.82457 4.07143L4.85286 4.00986C4.88298 3.94431 4.90142 3.87414 4.90748 3.80252C4.90896 3.78508 4.90971 3.76756 4.90971 3.74999C4.90971 3.66391 4.89185 3.57881 4.85732 3.50005L5.0665 3.40681M4.97222 4.2548C4.98149 4.24349 4.99007 4.23163 4.99793 4.21929M3.4193 0.114262C3.25857 0.0217499 3.07216 -0.0161354 2.88806 0.00629163M3.4193 0.114262L8.69418 12C3.90014 12 7.18027e-06 8.09983 7.18027e-06 3.30579C-0.00167006 2.49881 0.290546 1.71884 0.822049 1.11161C1.35355 0.504393 2.08797 0.111477 2.88806 0.00629163M3.4193 0.114262C3.58004 0.206773 3.70644 0.348921 3.77952 0.51937L5.0665 3.40681M3.4193 0.114262L3.5673 0.619786M2.88806 0.00629163L2.91853 0.238036M2.88806 0.00629163L2.91633 0.238328L2.91408 0.238627C2.17192 0.337194 1.49094 0.702227 0.998022 1.26564C0.997337 1.26643 0.996652 1.26721 0.995968 1.268C0.503349 1.83222 0.232795 2.55634 0.234722 3.3053C0.234723 3.30547 0.234723 3.30563 0.234724 3.30579C0.234724 3.30605 0.234726 3.30632 0.234726 3.30658L2.91853 0.238036M2.91853 0.238036L2.94685 0.234275H2.9799H2.99399H3.00332L3.00332 0.234362C3.10875 0.236331 3.21161 0.265037 3.30241 0.317351C3.31963 0.327271 3.33642 0.33804 3.35271 0.349637L3.35271 0.349639C3.44604 0.416084 3.51904 0.506866 3.56395 0.611805C3.56439 0.612827 3.56482 0.613849 3.56525 0.614873C3.56594 0.616507 3.56662 0.618145 3.5673 0.619786M2.91853 0.238036L3.5673 0.619786M2.95047 0.502391C2.95002 0.50245 2.94958 0.502509 2.94913 0.502569C2.27109 0.592719 1.64885 0.926172 1.19828 1.44093C1.19767 1.44163 1.19706 1.44233 1.19644 1.44303C0.746129 1.95853 0.498583 2.6202 0.500006 3.30475L0.500008 3.30579L2.95047 0.502391ZM2.95047 0.502391C2.96027 0.501251 2.97009 0.500521 2.9799 0.500196C2.9846 0.500041 2.9893 0.499978 2.99399 0.500008C2.99544 0.500017 2.9969 0.500035 2.99836 0.500062C3.05836 0.501178 3.11741 0.517408 3.16989 0.547612C3.17979 0.553313 3.18939 0.559467 3.19864 0.566044C3.25196 0.603939 3.29404 0.655896 3.31999 0.716415L3.31994 0.716435L3.32087 0.71853L3.10664 0.814482M2.95047 0.502391L2.99399 0.734275C3.01866 0.734736 3.04262 0.742641 3.06272 0.756953C3.08282 0.771266 3.09813 0.791318 3.10664 0.814482M3.5673 0.619786L4.85422 3.4931C4.85502 3.49487 4.85582 3.49664 4.8566 3.49841L5.0665 3.40681M5.0665 3.40681C5.12344 3.53729 5.14698 3.67988 5.13501 3.82173C5.12304 3.96358 5.07593 4.10021 4.99793 4.21929M4.99793 4.21929L4.99792 4.21929L4.99793 4.21929Z" fill="black" stroke="#00008B"/>
</svg>
