<svg width="13" height="12" viewBox="0 0 13 12" fill="none" xmlns="http://www.w3.org/2000/svg">
<path d="M3.33325 10.5C3.05125 10.5 2.81409 10.4038 2.62175 10.2115C2.42942 10.0192 2.33325 9.782 2.33325 9.5V8.115H3.83325V1.5H10.3333V9.5C10.3333 9.782 10.2371 10.0192 10.0448 10.2115C9.85242 10.4038 9.61525 10.5 9.33325 10.5H3.33325ZM9.33325 10C9.47492 10 9.59375 9.952 9.68975 9.856C9.78575 9.76 9.83359 9.64133 9.83325 9.5V2H4.33325V8.115H8.83325V9.5C8.83325 9.64167 8.88125 9.7605 8.97725 9.8565C9.07325 9.9525 9.19192 10.0003 9.33325 10ZM5.02575 4.1925V3.6925H9.14075V4.1925H5.02575ZM5.02575 5.577V5.077H9.14075V5.577H5.02575ZM3.33325 10H8.33325V8.615H2.83325V9.5C2.83325 9.64167 2.88125 9.7605 2.97725 9.8565C3.07325 9.9525 3.19192 10.0003 3.33325 10ZM3.33325 10H2.83325H8.33325H3.33325Z" fill="black"/>
</svg>
