<svg width="14" height="14" viewBox="0 0 14 14" fill="none" xmlns="http://www.w3.org/2000/svg">
<path d="M2.91661 4.52075C2.83013 4.52083 2.74562 4.54653 2.67375 4.59461C2.60187 4.64268 2.54586 4.71098 2.51277 4.79088C2.47969 4.87078 2.47103 4.95868 2.48788 5.0435C2.50473 5.12831 2.54633 5.20623 2.60744 5.26742L6.69077 9.35075C6.77281 9.43268 6.884 9.4787 6.99994 9.4787C7.11588 9.4787 7.22708 9.43268 7.30911 9.35075L11.3924 5.26742C11.4535 5.20623 11.4952 5.12831 11.512 5.0435C11.5289 4.95868 11.5202 4.87078 11.4871 4.79088C11.454 4.71098 11.398 4.64268 11.3261 4.59461C11.2543 4.54653 11.1697 4.52083 11.0833 4.52075H2.91661Z" fill="black"/>
</svg>
