<svg width="12" height="13" viewBox="0 0 12 13" fill="none" xmlns="http://www.w3.org/2000/svg">
<path d="M6 7.5C6.55228 7.5 7 7.05228 7 6.5C7 5.94772 6.55228 5.5 6 5.5C5.44772 5.5 5 5.94772 5 6.5C5 7.05228 5.44772 7.5 6 7.5Z" fill="#B3B3B3"/>
<path d="M10.4036 6.17373C9.90744 5.40649 9.26376 4.75474 8.54226 4.28881C7.74408 3.77281 6.86284 3.5 5.99397 3.5C5.19672 3.5 4.41279 3.72781 3.66392 4.17706C2.90024 4.63512 2.20837 5.3043 1.60744 6.16586C1.5396 6.26323 1.50223 6.37856 1.5001 6.49722C1.49796 6.61587 1.53115 6.73248 1.59544 6.83223C2.09062 7.60716 2.72793 8.25984 3.43817 8.7194C4.23785 9.23746 5.09847 9.49996 5.99397 9.49996C6.86977 9.49996 7.75289 9.2294 8.5477 8.71771C9.26882 8.25328 9.91119 7.5991 10.4054 6.82548C10.4675 6.72805 10.5003 6.61485 10.5 6.49933C10.4997 6.38381 10.4662 6.2708 10.4036 6.17373ZM6.00034 8.29997C5.64434 8.29997 5.29633 8.1944 5.00032 7.99661C4.70432 7.79883 4.47361 7.51771 4.33737 7.1888C4.20113 6.8599 4.16549 6.49798 4.23494 6.14882C4.30439 5.79966 4.47583 5.47893 4.72756 5.2272C4.97929 4.97546 5.30002 4.80403 5.64918 4.73458C5.99835 4.66513 6.36026 4.70077 6.68917 4.83701C7.01807 4.97324 7.29919 5.20395 7.49698 5.49996C7.69476 5.79597 7.80033 6.14398 7.80033 6.49998C7.79978 6.9772 7.60997 7.43471 7.27252 7.77216C6.93508 8.1096 6.47756 8.29942 6.00034 8.29997Z" fill="#B3B3B3"/>
</svg>
