<svg width="17" height="17" viewBox="0 0 17 17" fill="none" xmlns="http://www.w3.org/2000/svg">
<g clip-path="url(#clip0_863_2063)">
<path d="M16 8.5C16 12.0393 13.5479 15.0066 10.25 15.7947V11.3125H11.6141H12.0432L12.1083 10.8883L12.463 8.5758L12.5513 8H11.9688H10.25V6.99937C10.25 6.75571 10.3105 6.5765 10.4074 6.46448C10.4925 6.36601 10.6654 6.25 11.0538 6.25H12.0625H12.5625V5.75V3.78125V3.35936L12.1466 3.28838L12.0625 3.78125L12.1465 3.28836L12.1464 3.28834L12.1461 3.2883L12.1453 3.28816L12.1427 3.28772L12.1336 3.2862L12.1003 3.2808C12.0717 3.27623 12.0305 3.26981 11.9786 3.26217C11.8748 3.24689 11.7278 3.22665 11.5527 3.20643C11.2046 3.16623 10.736 3.125 10.2718 3.125C9.25704 3.125 8.36292 3.43437 7.72189 4.07598C7.08036 4.71811 6.75 5.63521 6.75 6.7375V8H5.21875H4.71875V8.5V10.8125V11.3125H5.21875H6.75V15.7947C3.45208 15.0066 1 12.0393 1 8.5C1 4.35789 4.35789 1 8.5 1C12.6421 1 16 4.35789 16 8.5Z" fill="#1877F2" stroke="#1877F2"/>
<path d="M11.438 4.19982C11.4815 4.20485 11.5231 4.20987 11.5625 4.21479V5.25H11.0538C10.4483 5.25 9.96928 5.44231 9.651 5.81035C9.34443 6.16485 9.25 6.61033 9.25 6.99937V8.5V9H9.75H11.3862L11.1849 10.3125H9.75H9.25V10.8125V15.9629C9.0009 15.9877 8.75063 16.0001 8.50012 16H8.49988C8.24937 16.0001 7.9991 15.9877 7.75 15.9629V10.8125V10.3125H7.25H5.71875V9H7.25H7.75V8.5V6.7375C7.75 5.83479 8.01683 5.19564 8.42932 4.78276C8.84232 4.36938 9.45906 4.125 10.2717 4.125C10.6827 4.125 11.1095 4.1619 11.438 4.19982Z" fill="white" stroke="white"/>
</g>
<defs>
<clipPath id="clip0_863_2063">
<rect width="16" height="16" fill="white" transform="translate(0.5 0.5)"/>
</clipPath>
</defs>
</svg>
