<svg width="25" height="24" viewBox="0 0 25 24" fill="none" xmlns="http://www.w3.org/2000/svg">
<g clip-path="url(#clip0_718_7333)">
<path d="M24.333 12C24.333 5.37262 18.9604 0 12.333 0C5.70563 0 0.333008 5.37262 0.333008 12C0.333008 17.9895 4.72126 22.954 10.458 23.8542V15.4688H7.41113V12H10.458V9.35625C10.458 6.34875 12.2496 4.6875 14.9906 4.6875C16.3035 4.6875 17.6768 4.92188 17.6768 4.92188V7.875H16.1636C14.6729 7.875 14.208 8.80003 14.208 9.74906V12H17.5361L17.0041 15.4688H14.208V23.8542C19.9448 22.954 24.333 17.9896 24.333 12Z" fill="#FF5C00"/>
<path d="M17.0041 15.4688L17.5361 12H14.208V9.74906C14.208 8.79994 14.6729 7.875 16.1636 7.875H17.6768V4.92188C17.6768 4.92188 16.3035 4.6875 14.9905 4.6875C12.2496 4.6875 10.458 6.34875 10.458 9.35625V12H7.41113V15.4688H10.458V23.8542C11.0783 23.9514 11.7052 24.0001 12.333 24C12.9608 24.0001 13.5877 23.9514 14.208 23.8542V15.4688H17.0041Z" fill="white"/>
</g>
<defs>
<clipPath id="clip0_718_7333">
<rect width="24" height="24" fill="white" transform="translate(0.333008)"/>
</clipPath>
</defs>
</svg>
