<svg width="15" height="15" viewBox="0 0 15 15" fill="none" xmlns="http://www.w3.org/2000/svg">
<path d="M13.125 3.82822V10.8595C13.125 11.2585 12.8209 11.5626 12.4219 11.5626H11.7188V5.18138L7.5 8.21185L3.28125 5.18138V11.5626H2.57812C2.1791 11.5626 1.875 11.2585 1.875 10.8595V3.82822C1.875 3.62853 1.95023 3.45275 2.07645 3.3283C2.14214 3.26248 2.22042 3.21057 2.30661 3.17566C2.3928 3.14075 2.48514 3.12355 2.57812 3.1251H2.81262L7.5 6.52365L12.1874 3.1251H12.4219C12.6216 3.1251 12.7973 3.20033 12.9236 3.3283C13.0498 3.45275 13.125 3.62853 13.125 3.82822Z" fill="#FF5C00"/>
</svg>
