<svg width="17" height="17" viewBox="0 0 17 17" fill="none" xmlns="http://www.w3.org/2000/svg">
<path d="M8.50065 2.33325C9.93746 2.33325 11.2562 2.82843 12.305 3.65509L11.1168 4.84329C10.3807 4.31434 9.47825 3.99992 8.50065 3.99992C6.01551 3.99992 4.00065 6.01478 4.00065 8.49992C4.00065 10.9851 6.01551 12.9999 8.50065 12.9999C10.4611 12.9999 12.1219 11.7449 12.7396 10.0001L12.9758 9.33325H12.2683H9.00065V7.66659H14.0007V7.69425H14.5007H14.6138C14.6488 7.95842 14.6673 8.22724 14.6673 8.49992C14.6673 11.9054 11.9062 14.6666 8.50065 14.6666C5.09513 14.6666 2.33398 11.9054 2.33398 8.49992C2.33398 5.09439 5.09513 2.33325 8.50065 2.33325Z" fill="#FFC107" stroke="#FFC107"/>
<path d="M12.3039 3.65509L11.1157 4.84329C10.3796 4.31434 9.47716 3.99992 8.49956 3.99992C6.83438 3.99992 5.38383 4.90469 4.60627 6.24707L3.2571 5.25762C4.34478 3.50199 6.28529 2.33325 8.49956 2.33325C9.93637 2.33325 11.2551 2.82843 12.3039 3.65509Z" fill="#FF3D00" stroke="#FF3D00"/>
<path d="M8.49945 15.1667C10.2215 15.1667 11.7861 14.5077 12.9691 13.436L10.9058 11.69C10.2141 12.2163 9.36865 12.5009 8.49945 12.5C6.76545 12.5 5.29312 11.3943 4.73845 9.85132L2.56445 11.5263C3.66779 13.6853 5.90845 15.1667 8.49945 15.1667Z" fill="#4CAF50"/>
<path d="M15.037 7.19441H14.5V7.16675H8.5V9.83341H12.2677C12.0047 10.5722 11.5311 11.2178 10.9053 11.6904L10.9063 11.6897L12.9697 13.4357C12.8237 13.5684 15.1667 11.8334 15.1667 8.50008C15.1667 8.05308 15.1207 7.61675 15.037 7.19441Z" fill="#1976D2"/>
</svg>
