<svg width="18" height="18" viewBox="0 0 18 18" fill="none" xmlns="http://www.w3.org/2000/svg">
<path d="M8.77711 4.57048L9 5.00922L9.22289 4.57048C9.84901 3.33799 11.0906 2.5 12.522 2.5C14.5739 2.5 16.25 4.21643 16.25 6.36075C16.25 8.53909 15.1478 10.4083 13.2051 12.2333L13.205 12.2333C12.2939 13.0897 11.2101 13.9159 10.3506 14.5299C9.92161 14.8364 9.54994 15.089 9.28572 15.2648C9.16679 15.344 9.06968 15.4075 8.99896 15.4534C8.92593 15.4067 8.82493 15.3416 8.70114 15.2602C8.43042 15.0823 8.05101 14.8273 7.61693 14.5193C6.74693 13.9019 5.66482 13.0768 4.79779 12.236C3.05515 10.5461 1.75 8.52824 1.75 6.36075C1.75 4.22291 3.42635 2.5 5.478 2.5C6.90939 2.5 8.15099 3.33799 8.77711 4.57048Z" stroke="#212121" stroke-width="0.5"/>
<path d="M12.522 2.25C10.989 2.25 9.66525 3.14775 9 4.45725C8.33475 3.14775 7.011 2.25 5.478 2.25C3.2805 2.25 1.5 4.09275 1.5 6.36075C1.5 8.62875 2.86275 10.7078 4.62375 12.4155C6.38475 14.1233 9 15.75 9 15.75C9 15.75 11.5305 14.1503 13.3762 12.4155C15.345 10.566 16.5 8.6355 16.5 6.36075C16.5 4.086 14.7195 2.25 12.522 2.25Z" stroke="#212121" stroke-width="0.5" stroke-linecap="round" stroke-linejoin="round"/>
</svg>
