<svg width="50" height="50" viewBox="0 0 50 50" fill="none" xmlns="http://www.w3.org/2000/svg">
<g clip-path="url(#clip0_762_3151)">
<path d="M25 0C20.0555 -5.8963e-08 15.222 1.46622 11.1107 4.21326C6.99952 6.96029 3.7952 10.8648 1.90301 15.4329C0.0108209 20.0011 -0.484263 25.0277 0.480368 29.8773C1.445 34.7268 3.82602 39.1814 7.32233 42.6777C10.8186 46.174 15.2732 48.555 20.1227 49.5196C24.9723 50.4843 29.9989 49.9892 34.5671 48.097C39.1352 46.2048 43.0397 43.0005 45.7867 38.8893C48.5338 34.778 50 29.9445 50 25H46.8536C46.8536 29.3222 45.5719 33.5474 43.1706 37.1412C40.7693 40.735 37.3562 43.5361 33.363 45.1901C29.3698 46.8442 24.9758 47.2769 20.7366 46.4337C16.4974 45.5905 12.6034 43.5091 9.54716 40.4528C6.49088 37.3966 4.40953 33.5026 3.5663 29.2634C2.72308 25.0242 3.15585 20.6302 4.8099 16.637C6.46395 12.6438 9.26498 9.23069 12.8588 6.82939C16.4526 4.42808 20.6778 3.14639 25 3.14639V0Z" fill="#00008B"/>
</g>
<defs>
<clipPath id="clip0_762_3151">
<rect width="50" height="50" fill="white"/>
</clipPath>
</defs>
</svg>
