<svg width="17" height="17" viewBox="0 0 17 17" fill="none" xmlns="http://www.w3.org/2000/svg">
<mask id="path-1-inside-1_863_4093" fill="white">
<path d="M8.48601 13.8334V13.1667H12.756C12.8582 13.1667 12.9522 13.1241 13.038 13.0387C13.1238 12.9534 13.1665 12.8592 13.166 12.7561V4.24408C13.166 4.14141 13.1233 4.04719 13.038 3.96141C12.9527 3.87564 12.8585 3.83297 12.7553 3.83341H8.48668V3.16675H12.756C13.0627 3.16675 13.3187 3.26964 13.524 3.47541C13.7293 3.68119 13.8322 3.93741 13.8327 4.24408V12.7567C13.8327 13.0634 13.7298 13.3196 13.524 13.5254C13.3182 13.7312 13.0622 13.8339 12.756 13.8334H8.48601ZM8.01268 10.8594L7.54402 10.3794L9.09068 8.83342H3.16602V8.16675H9.09068L7.54402 6.62008L8.01202 6.14141L10.3713 8.50008L8.01268 10.8594Z"/>
</mask>
<path d="M8.48601 13.8334V13.1667H12.756C12.8582 13.1667 12.9522 13.1241 13.038 13.0387C13.1238 12.9534 13.1665 12.8592 13.166 12.7561V4.24408C13.166 4.14141 13.1233 4.04719 13.038 3.96141C12.9527 3.87564 12.8585 3.83297 12.7553 3.83341H8.48668V3.16675H12.756C13.0627 3.16675 13.3187 3.26964 13.524 3.47541C13.7293 3.68119 13.8322 3.93741 13.8327 4.24408V12.7567C13.8327 13.0634 13.7298 13.3196 13.524 13.5254C13.3182 13.7312 13.0622 13.8339 12.756 13.8334H8.48601ZM8.01268 10.8594L7.54402 10.3794L9.09068 8.83342H3.16602V8.16675H9.09068L7.54402 6.62008L8.01202 6.14141L10.3713 8.50008L8.01268 10.8594Z" fill="black"/>
<path d="M8.48601 13.8334H7.48601V14.8334H8.48601V13.8334ZM8.48601 13.1667V12.1667H7.48601V13.1667H8.48601ZM13.166 12.7561H12.166L12.166 12.7604L13.166 12.7561ZM12.7553 3.83341V4.83342L12.7597 4.83341L12.7553 3.83341ZM8.48668 3.83341H7.48668V4.83341H8.48668V3.83341ZM8.48668 3.16675V2.16675H7.48668V3.16675H8.48668ZM13.8327 4.24408H14.8327L14.8327 4.24263L13.8327 4.24408ZM12.756 13.8334L12.7575 12.8334H12.756V13.8334ZM8.01268 10.8594L7.29718 11.558L8.00428 12.2822L8.71989 11.5664L8.01268 10.8594ZM7.54402 10.3794L6.83706 9.67216L6.13805 10.3709L6.82851 11.078L7.54402 10.3794ZM9.09068 8.83342L9.79764 9.54067L11.5056 7.83342H9.09068V8.83342ZM3.16602 8.83342H2.16602V9.83342H3.16602V8.83342ZM3.16602 8.16675V7.16675H2.16602V8.16675H3.16602ZM9.09068 8.16675V9.16675H11.5049L9.79779 7.45964L9.09068 8.16675ZM7.54402 6.62008L6.82899 5.92099L6.13773 6.628L6.83691 7.32719L7.54402 6.62008ZM8.01202 6.14141L8.71902 5.43421L8.0039 4.71929L7.29699 5.44232L8.01202 6.14141ZM10.3713 8.50008L11.0786 9.20709L11.7856 8.49988L11.0784 7.79287L10.3713 8.50008ZM9.48601 13.8334V13.1667H7.48601V13.8334H9.48601ZM8.48601 14.1667H12.756V12.1667H8.48601V14.1667ZM12.756 14.1667C13.1705 14.1667 13.5071 13.9827 13.7433 13.7477L12.3327 12.3298C12.3601 12.3026 12.4114 12.2598 12.4899 12.2242C12.5714 12.1872 12.6631 12.1667 12.756 12.1667V14.1667ZM13.7433 13.7477C13.9832 13.509 14.1678 13.1688 14.166 12.7518L12.166 12.7604C12.1656 12.6678 12.1856 12.575 12.2234 12.4916C12.2598 12.4112 12.304 12.3584 12.3327 12.3298L13.7433 13.7477ZM14.166 12.7561V4.24408H12.166V12.7561H14.166ZM14.166 4.24408C14.166 3.83035 13.9829 3.49333 13.747 3.25615L12.3291 4.66668C12.3015 4.63895 12.2586 4.58746 12.2231 4.50892C12.1862 4.42743 12.166 4.33611 12.166 4.24408H14.166ZM13.747 3.25615C13.5082 3.01619 13.168 2.83163 12.751 2.83342L12.7597 4.83341C12.667 4.8338 12.5742 4.8138 12.4908 4.77604C12.4105 4.73964 12.3577 4.69543 12.3291 4.66668L13.747 3.25615ZM12.7553 2.83341H8.48668V4.83341H12.7553V2.83341ZM9.48668 3.83341V3.16675H7.48668V3.83341H9.48668ZM8.48668 4.16675H12.756V2.16675H8.48668V4.16675ZM12.756 4.16675C12.7767 4.16675 12.7897 4.16847 12.7966 4.16973C12.8033 4.17095 12.8056 4.172 12.8051 4.17178C12.8045 4.17153 12.804 4.17119 12.8044 4.1715C12.805 4.17189 12.809 4.17459 12.8161 4.18176L14.2319 2.76907C13.8278 2.36411 13.3121 2.16675 12.756 2.16675V4.16675ZM12.8161 4.18176C12.8235 4.18908 12.8264 4.1933 12.8269 4.19418C12.8273 4.19474 12.8274 4.1949 12.8273 4.19475C12.8272 4.19459 12.8272 4.19448 12.8272 4.19455C12.8272 4.19463 12.8275 4.19526 12.8279 4.19663C12.8283 4.19801 12.8289 4.20043 12.8296 4.2041C12.8309 4.21133 12.8327 4.22468 12.8327 4.24553L14.8327 4.24263C14.8319 3.68775 14.635 3.17308 14.2319 2.76907L12.8161 4.18176ZM12.8327 4.24408V12.7567H14.8327V4.24408H12.8327ZM12.8327 12.7567C12.8327 12.7774 12.831 12.7905 12.8297 12.7975C12.829 12.801 12.8284 12.8033 12.8281 12.8046C12.8279 12.8052 12.8278 12.8056 12.8277 12.8059C12.8276 12.8062 12.8275 12.8063 12.8275 12.8063C12.8275 12.8063 12.8276 12.8062 12.8276 12.8061C12.8277 12.806 12.8277 12.8059 12.8278 12.8058C12.8279 12.8055 12.8279 12.8056 12.8276 12.8061C12.8271 12.8068 12.8242 12.811 12.8169 12.8183L14.2311 14.2325C14.6354 13.8283 14.8327 13.3128 14.8327 12.7567H12.8327ZM12.8169 12.8183C12.8096 12.8256 12.8055 12.8284 12.8048 12.8289C12.8043 12.8292 12.8048 12.8289 12.8055 12.8286C12.8061 12.8284 12.8039 12.8294 12.7974 12.8305C12.7907 12.8318 12.7778 12.8334 12.7575 12.8334L12.7546 14.8334C13.3111 14.8342 13.8268 14.6368 14.2311 14.2325L12.8169 12.8183ZM12.756 12.8334H8.48601V14.8334H12.756V12.8334ZM8.72819 10.1608L8.25952 9.68081L6.82851 11.078L7.29718 11.558L8.72819 10.1608ZM8.25097 11.0867L9.79764 9.54067L8.38373 8.12616L6.83706 9.67216L8.25097 11.0867ZM9.09068 7.83342H3.16602V9.83342H9.09068V7.83342ZM4.16602 8.83342V8.16675H2.16602V8.83342H4.16602ZM3.16602 9.16675H9.09068V7.16675H3.16602V9.16675ZM9.79779 7.45964L8.25112 5.91297L6.83691 7.32719L8.38357 8.87386L9.79779 7.45964ZM8.25904 7.31918L8.72704 6.84051L7.29699 5.44232L6.82899 5.92099L8.25904 7.31918ZM7.30501 6.84862L9.66434 9.20729L11.0784 7.79287L8.71902 5.43421L7.30501 6.84862ZM9.66414 7.79307L7.30548 10.1524L8.71989 11.5664L11.0786 9.20709L9.66414 7.79307Z" fill="#212121" mask="url(#path-1-inside-1_863_4093)"/>
</svg>
