<svg width="18" height="18" viewBox="0 0 18 18" fill="none" xmlns="http://www.w3.org/2000/svg">
<mask id="path-1-inside-1_1049_11800" fill="white">
<path d="M4.212 15C3.8665 15 3.57825 14.8845 3.34725 14.6535C3.11625 14.4225 3.0005 14.134 3 13.788V4.212C3 3.8665 3.11575 3.57825 3.34725 3.34725C3.57875 3.11625 3.867 3.0005 4.212 3H9.01425V3.75H4.212C4.0965 3.75 3.9905 3.798 3.894 3.894C3.7975 3.99 3.7495 4.096 3.75 4.212V13.7887C3.75 13.9038 3.798 14.0095 3.894 14.106C3.99 14.2025 4.09575 14.2505 4.21125 14.25H9.01425V15H4.212ZM12.3465 11.6542L11.82 11.1143L13.5592 9.375H6.894V8.625H13.5592L11.8193 6.885L12.3458 6.3465L15 9L12.3465 11.6542Z"/>
</mask>
<path d="M4.212 15C3.8665 15 3.57825 14.8845 3.34725 14.6535C3.11625 14.4225 3.0005 14.134 3 13.788V4.212C3 3.8665 3.11575 3.57825 3.34725 3.34725C3.57875 3.11625 3.867 3.0005 4.212 3H9.01425V3.75H4.212C4.0965 3.75 3.9905 3.798 3.894 3.894C3.7975 3.99 3.7495 4.096 3.75 4.212V13.7887C3.75 13.9038 3.798 14.0095 3.894 14.106C3.99 14.2025 4.09575 14.2505 4.21125 14.25H9.01425V15H4.212ZM12.3465 11.6542L11.82 11.1143L13.5592 9.375H6.894V8.625H13.5592L11.8193 6.885L12.3458 6.3465L15 9L12.3465 11.6542Z" fill="black"/>
<path d="M3 13.788L2 13.788L2 13.7894L3 13.788ZM4.212 3V2L4.21055 2L4.212 3ZM9.01425 3H10.0142V2H9.01425V3ZM9.01425 3.75V4.75H10.0142V3.75H9.01425ZM3.75 4.212H4.75001L4.74999 4.20769L3.75 4.212ZM4.21125 14.25V13.25L4.20692 13.25L4.21125 14.25ZM9.01425 14.25H10.0142V13.25H9.01425V14.25ZM9.01425 15V16H10.0142V15H9.01425ZM12.3465 11.6542L11.6305 12.3524L12.3376 13.0776L13.0537 12.3613L12.3465 11.6542ZM11.82 11.1143L11.1129 10.4071L10.4147 11.1054L11.104 11.8124L11.82 11.1143ZM13.5592 9.375L14.2664 10.0821L15.9735 8.375H13.5592V9.375ZM6.894 9.375H5.894V10.375H6.894V9.375ZM6.894 8.625V7.625H5.894V8.625H6.894ZM13.5592 8.625V9.625H15.9735L14.2664 7.91789L13.5592 8.625ZM11.8193 6.885L11.1042 6.18591L10.413 6.89292L11.1121 7.59211L11.8193 6.885ZM12.3458 6.3465L13.0528 5.63929L12.3376 4.92438L11.6307 5.6474L12.3458 6.3465ZM15 9L15.7072 9.70701L16.4142 8.9998L15.707 8.29279L15 9ZM4.212 14C4.11475 14 4.08615 13.9782 4.05436 13.9464L2.64014 15.3606C3.07035 15.7908 3.61825 16 4.212 16V14ZM4.05436 13.9464C4.02247 13.9145 4.00014 13.8852 4 13.7866L2 13.7894C2.00086 14.3828 2.21003 14.9305 2.64014 15.3606L4.05436 13.9464ZM4 13.788V4.212H2V13.788H4ZM4 4.212C4 4.11543 4.02157 4.08707 4.05359 4.05512L2.64091 2.63938C2.20993 3.06943 2 3.61757 2 4.212H4ZM4.05359 4.05512C4.08686 4.02192 4.11666 4.00014 4.21345 4L4.21055 2C3.61734 2.00086 3.07064 2.21058 2.64091 2.63938L4.05359 4.05512ZM4.212 4H9.01425V2H4.212V4ZM8.01425 3V3.75H10.0142V3H8.01425ZM9.01425 2.75H4.212V4.75H9.01425V2.75ZM4.212 2.75C3.78543 2.75 3.43664 2.93844 3.18873 3.18506L4.59927 4.60294C4.5769 4.62519 4.53103 4.66406 4.45838 4.69695C4.38278 4.73119 4.29761 4.75 4.212 4.75V2.75ZM3.18873 3.18506C2.93805 3.43444 2.74816 3.78642 2.75001 4.21631L4.74999 4.20769C4.75036 4.29387 4.73168 4.3805 4.69658 4.45801C4.66285 4.5325 4.62266 4.57967 4.59927 4.60294L3.18873 3.18506ZM2.75 4.212V13.7887H4.75V4.212H2.75ZM2.75 13.7887C2.75 14.216 2.93941 14.5643 3.18506 14.8113L4.60294 13.4007C4.62484 13.4227 4.66363 13.4684 4.69659 13.541C4.73091 13.6166 4.75 13.7022 4.75 13.7887H2.75ZM3.18506 14.8113C3.43346 15.061 3.78499 15.2519 4.21558 15.25L4.20692 13.25C4.29401 13.2496 4.38109 13.2686 4.45863 13.3038C4.53308 13.3376 4.58003 13.3777 4.60294 13.4007L3.18506 14.8113ZM4.21125 15.25H9.01425V13.25H4.21125V15.25ZM8.01425 14.25V15H10.0142V14.25H8.01425ZM9.01425 14H4.212V16H9.01425V14ZM13.0625 10.9561L12.536 10.4162L11.104 11.8124L11.6305 12.3524L13.0625 10.9561ZM12.5271 11.8214L14.2664 10.0821L12.8521 8.66789L11.1129 10.4071L12.5271 11.8214ZM13.5592 8.375H6.894V10.375H13.5592V8.375ZM7.894 9.375V8.625H5.894V9.375H7.894ZM6.894 9.625H13.5592V7.625H6.894V9.625ZM14.2664 7.91789L12.5264 6.17789L11.1121 7.59211L12.8521 9.33211L14.2664 7.91789ZM12.5343 7.5841L13.0608 7.0456L11.6307 5.6474L11.1042 6.18591L12.5343 7.5841ZM11.6387 7.05371L14.293 9.70721L15.707 8.29279L13.0528 5.63929L11.6387 7.05371ZM14.2928 8.29299L11.6393 10.9472L13.0537 12.3613L15.7072 9.70701L14.2928 8.29299Z" fill="#212121" mask="url(#path-1-inside-1_1049_11800)"/>
</svg>
