<svg width="15" height="15" viewBox="0 0 15 15" fill="none" xmlns="http://www.w3.org/2000/svg">
<path d="M12.6427 9.58339L9.93108 8.36823C9.80822 8.31559 9.67417 8.29443 9.54107 8.30665C9.40797 8.31888 9.28002 8.36412 9.16881 8.43826C9.15755 8.44554 9.1468 8.45359 9.13667 8.46237L7.71946 9.66777C7.70476 9.67579 7.68839 9.68027 7.67165 9.68087C7.65492 9.68147 7.63827 9.67816 7.62303 9.67121C6.7121 9.23153 5.76844 8.29361 5.32704 7.39531C5.31969 7.3803 5.31586 7.3638 5.31586 7.34709C5.31586 7.33038 5.31969 7.31388 5.32704 7.29887L6.53645 5.86388C6.54514 5.85327 6.55319 5.84215 6.56056 5.83058C6.63368 5.71895 6.67785 5.59085 6.68907 5.45787C6.70029 5.32489 6.67822 5.1912 6.62485 5.06889L5.4183 2.36191C5.34978 2.20211 5.23129 2.06885 5.0806 1.98212C4.9299 1.89539 4.75515 1.85987 4.58256 1.8809C3.83247 1.97951 3.14395 2.34787 2.64567 2.91714C2.14739 3.48641 1.87343 4.21764 1.87501 4.97418C1.87501 9.46859 5.53138 13.125 10.0258 13.125C10.7823 13.1264 11.5135 12.8524 12.0827 12.3542C12.652 11.8559 13.0203 11.1674 13.1191 10.4174C13.1401 10.2456 13.105 10.0717 13.0192 9.92139C12.9333 9.77112 12.8013 9.65257 12.6427 9.58339ZM10.0258 12.4362C5.91137 12.4362 2.56381 9.0886 2.56381 4.97418C2.56189 4.38522 2.77447 3.8157 3.16182 3.37204C3.54918 2.92838 4.08482 2.64092 4.66866 2.56338H4.68186C4.70499 2.56381 4.72745 2.57123 4.7463 2.58464C4.76515 2.59806 4.7795 2.61686 4.78748 2.63858L5.99861 5.34269C6.00552 5.35772 6.0091 5.37407 6.0091 5.39061C6.0091 5.40716 6.00552 5.42351 5.99861 5.43854L4.7869 6.87699C4.77791 6.88729 4.76966 6.89822 4.76222 6.9097C4.6864 7.02545 4.64175 7.15882 4.6326 7.29689C4.62345 7.43496 4.6501 7.57306 4.70999 7.6978C5.21912 8.74019 6.26954 9.78257 7.3234 10.2917C7.44888 10.3513 7.58765 10.3773 7.72617 10.3672C7.86469 10.3572 7.99825 10.3114 8.1138 10.2343C8.12471 10.2268 8.13561 10.2188 8.14594 10.2102L9.56257 9.0048C9.57656 8.99728 9.59202 8.99288 9.60787 8.99189C9.62372 8.99089 9.6396 8.99334 9.65441 8.99906L12.3666 10.2142C12.3887 10.2236 12.4073 10.2398 12.4198 10.2604C12.4323 10.281 12.4379 10.305 12.436 10.329C12.3589 10.9131 12.0717 11.4492 11.6281 11.837C11.1846 12.2247 10.615 12.4377 10.0258 12.4362Z" fill="#FF5C00"/>
</svg>
