<svg width="15" height="15" viewBox="0 0 15 15" fill="none" xmlns="http://www.w3.org/2000/svg">
<path d="M11.875 6.47727C11.875 10.0568 7.5 13.125 7.5 13.125C7.5 13.125 3.125 10.0568 3.125 6.47727C3.125 5.25667 3.58594 4.08607 4.40641 3.22297C5.22688 2.35988 6.33968 1.875 7.5 1.875C8.66032 1.875 9.77312 2.35988 10.5936 3.22297C11.4141 4.08607 11.875 5.25667 11.875 6.47727Z" stroke="#FF5C00" stroke-width="0.7" stroke-linecap="round" stroke-linejoin="round"/>
<path d="M7.5 8.125C8.53553 8.125 9.375 7.28553 9.375 6.25C9.375 5.21447 8.53553 4.375 7.5 4.375C6.46447 4.375 5.625 5.21447 5.625 6.25C5.625 7.28553 6.46447 8.125 7.5 8.125Z" stroke="#FF5C00" stroke-width="0.7" stroke-linecap="round" stroke-linejoin="round"/>
</svg>
