<svg width="24" height="24" viewBox="0 0 24 24" fill="none" xmlns="http://www.w3.org/2000/svg">
<path d="M23.626 0.147321C23.9207 0.361607 24.0412 0.647321 23.9876 1.00446L20.5591 21.5759C20.5145 21.8348 20.3716 22.0357 20.1306 22.1786C20.0056 22.25 19.8672 22.2857 19.7154 22.2857C19.6172 22.2857 19.51 22.2634 19.394 22.2188L13.3271 19.7411L10.0861 23.692C9.92541 23.8973 9.70666 24 9.42988 24C9.31381 24 9.2156 23.9821 9.13524 23.9464C8.9656 23.8839 8.82944 23.779 8.72677 23.6317C8.62409 23.4844 8.57275 23.3214 8.57275 23.1429V18.4688L20.144 4.28571L5.82727 16.6741L0.537192 14.5045C0.206841 14.3795 0.0282733 14.1339 0.00148807 13.7679C-0.0163687 13.4107 0.126486 13.1473 0.430051 12.9777L22.7153 0.120536C22.8493 0.0401786 22.9921 0 23.1439 0C23.3225 0 23.4832 0.0491071 23.626 0.147321Z" fill="#0000AF"/>
</svg>
