<svg width="24" height="24" viewBox="0 0 24 24" fill="none" xmlns="http://www.w3.org/2000/svg">
<rect width="24" height="24" rx="12" fill="white"/>
<path d="M15.4935 9.77579C16.5266 10.5139 17.7922 10.9482 19.1591 10.9482V8.31928C18.9004 8.31938 18.6424 8.29239 18.3893 8.23874V10.3081C17.0225 10.3081 15.7571 9.87385 14.7237 9.13578V14.5008C14.7237 17.1846 12.5469 19.3601 9.86187 19.3601C8.86002 19.3601 7.9288 19.0574 7.15527 18.5382C8.03815 19.4405 9.26938 20.0002 10.6315 20.0002C13.3167 20.0002 15.4936 17.8247 15.4936 15.1407V9.77579H15.4935ZM16.4432 7.1235C15.9152 6.54699 15.5685 5.80195 15.4935 4.97825V4.64014H14.764C14.9476 5.68701 15.574 6.5814 16.4432 7.1235ZM8.85355 16.4787C8.55854 16.0922 8.39908 15.6193 8.39983 15.133C8.39983 13.9055 9.39549 12.9103 10.6239 12.9103C10.8528 12.9101 11.0803 12.9453 11.2985 13.0144V10.3267C11.0435 10.2918 10.7862 10.2769 10.529 10.2824V12.3744C10.3107 12.3052 10.0831 12.2701 9.85408 12.2703C8.62572 12.2703 7.63012 13.2654 7.63012 14.4931C7.63012 15.3611 8.12776 16.1126 8.85355 16.4787Z" fill="#FF004F"/>
<path d="M14.7236 9.13573C15.757 9.8738 17.0224 10.308 18.3892 10.308V8.23869C17.6263 8.07624 16.9509 7.67778 16.4431 7.1235C15.5738 6.58134 14.9476 5.68696 14.7639 4.64014H12.8478V15.1406C12.8434 16.3647 11.8495 17.3559 10.6237 17.3559C9.90145 17.3559 9.25973 17.0118 8.85336 16.4787C8.12767 16.1126 7.62998 15.3611 7.62998 14.4931C7.62998 13.2656 8.62558 12.2703 9.85394 12.2703C10.0893 12.2703 10.3161 12.3069 10.5289 12.3744V10.2824C7.89099 10.3369 5.76953 12.4912 5.76953 15.1406C5.76953 16.4632 6.29781 17.6622 7.15524 18.5383C7.92877 19.0574 8.85994 19.3602 9.86185 19.3602C12.5469 19.3602 14.7237 17.1846 14.7237 14.5008L14.7236 9.13573Z" fill="black"/>
<path d="M18.3895 8.2385V7.67908C17.7015 7.68008 17.027 7.48751 16.4433 7.12337C16.96 7.68877 17.6404 8.07867 18.3895 8.23861M14.7641 4.63995C14.7466 4.53992 14.7332 4.43923 14.7238 4.33812V4H12.0781V14.5006C12.0739 15.7246 11.0799 16.7158 9.85412 16.7158C9.50661 16.7163 9.16385 16.6351 8.85354 16.4787C9.25991 17.0117 9.90163 17.3557 10.6239 17.3557C11.8496 17.3557 12.8436 16.3647 12.8479 15.1405V4.64001L14.7641 4.63995ZM10.5292 10.2823V9.68661C10.3082 9.65642 10.0853 9.64131 9.86214 9.64136C7.17677 9.64136 5 11.817 5 14.5006C5 16.1831 5.8555 17.6659 7.15554 18.5381C6.2981 17.662 5.76982 16.463 5.76982 15.1405C5.76982 12.4911 7.89123 10.3367 10.5292 10.2823Z" fill="#00F2EA"/>
</svg>
