<svg width="10" height="10" viewBox="0 0 10 10" fill="none" xmlns="http://www.w3.org/2000/svg">
<path d="M19 9.00003C19.0034 10.3199 18.6951 11.6219 18.1 12.8C17.3944 14.2118 16.3098 15.3992 14.9674 16.2293C13.6251 17.0594 12.0782 17.4994 10.5 17.5C9.18013 17.5035 7.87812 17.1951 6.7 16.6L1 18.5L2.9 12.8C2.30493 11.6219 1.99656 10.3199 2 9.00003C2.00061 7.42179 2.44061 5.87488 3.27072 4.53258C4.10083 3.19028 5.28825 2.1056 6.7 1.40003C7.87812 0.80496 9.18013 0.496587 10.5 0.500028H11C13.0843 0.61502 15.053 1.49479 16.5291 2.97089C18.0052 4.44699 18.885 6.41568 19 8.50003V9.00003Z" stroke="#212121" stroke-linecap="round" stroke-linejoin="round"/>
</svg>
