<svg width="25" height="24" viewBox="0 0 25 24" fill="none" xmlns="http://www.w3.org/2000/svg">
<rect x="0.916992" y="0.25" width="23.5" height="23.5" rx="11.75" stroke="#FF5C00" stroke-width="0.5"/>
<path d="M20.3139 7.75472C20.2221 7.41556 20.0431 7.10636 19.7947 6.85791C19.5462 6.60946 19.237 6.43042 18.8979 6.33863C17.6562 6 12.659 6 12.659 6C12.659 6 7.66155 6.01025 6.41991 6.34888C6.08075 6.44068 5.77155 6.61972 5.52311 6.86818C5.27467 7.11665 5.09565 7.42586 5.00388 7.76503C4.62832 9.97119 4.48263 13.3329 5.0142 15.4508C5.10597 15.7899 5.28499 16.0991 5.53343 16.3476C5.78188 16.596 6.09107 16.7751 6.43022 16.8669C7.67187 17.2055 12.6692 17.2055 12.6692 17.2055C12.6692 17.2055 17.6665 17.2055 18.9081 16.8669C19.2472 16.7751 19.5564 16.5961 19.8049 16.3476C20.0533 16.0992 20.2324 15.79 20.3241 15.4508C20.7203 13.2415 20.8423 9.88188 20.3139 7.75472Z" fill="#FF5C00"/>
<path d="M11.0684 14.004L15.2139 11.6028L11.0684 9.20166V14.004Z" fill="white"/>
</svg>
